<svg width="318" height="80" viewBox="0 0 318 80" fill="none" xmlns="http://www.w3.org/2000/svg">
<g filter="url(#filter0_b_2095_2434)">
<mask id="path-1-inside-1_2095_2434" fill="white">
<path fill-rule="evenodd" clip-rule="evenodd" d="M0 79.3726L0 31.0711L31.0711 0L317.49 0V50.002L288.12 79.3726L0 79.3726ZM316.815 79.3726H317.49V78.697L316.815 79.3726Z"/>
</mask>
<path fill-rule="evenodd" clip-rule="evenodd" d="M0 79.3726L0 31.0711L31.0711 0L317.49 0V50.002L288.12 79.3726L0 79.3726ZM316.815 79.3726H317.49V78.697L316.815 79.3726Z" fill="black" fill-opacity="0.6"/>
<path d="M0 31.0711L-0.801784 30.2694L-1.13389 30.6015L-1.13389 31.0711H0ZM0 79.3726H-1.13389V80.5064H0L0 79.3726ZM31.0711 0V-1.13389L30.6015 -1.13389L30.2694 -0.801784L31.0711 0ZM317.49 0L318.624 0V-1.13389H317.49V0ZM317.49 50.002L318.292 50.8037L318.624 50.4716V50.002H317.49ZM288.12 79.3726V80.5064H288.589L288.921 80.1743L288.12 79.3726ZM316.815 79.3726L316.013 78.5708L314.077 80.5064H316.815V79.3726ZM317.49 79.3726V80.5064H318.624V79.3726H317.49ZM317.49 78.697H318.624V75.9595L316.688 77.8952L317.49 78.697ZM-1.13389 31.0711L-1.13389 79.3726H1.13389L1.13389 31.0711H-1.13389ZM30.2694 -0.801784L-0.801784 30.2694L0.801784 31.8729L31.8729 0.801784L30.2694 -0.801784ZM317.49 -1.13389L31.0711 -1.13389V1.13389L317.49 1.13389V-1.13389ZM318.624 50.002V0L316.356 0V50.002H318.624ZM288.921 80.1743L318.292 50.8037L316.688 49.2002L287.318 78.5708L288.921 80.1743ZM0 80.5064L288.12 80.5064V78.2387L0 78.2387L0 80.5064ZM316.815 80.5064H317.49V78.2387H316.815V80.5064ZM318.624 79.3726V78.697H316.356V79.3726H318.624ZM316.688 77.8952L316.013 78.5708L317.616 80.1743L318.292 79.4988L316.688 77.8952Z" fill="url(#paint0_radial_2095_2434)" mask="url(#path-1-inside-1_2095_2434)"/>
<path d="M0 31.0711L-0.801784 30.2694L-1.13389 30.6015L-1.13389 31.0711H0ZM0 79.3726H-1.13389V80.5064H0L0 79.3726ZM31.0711 0V-1.13389L30.6015 -1.13389L30.2694 -0.801784L31.0711 0ZM317.49 0L318.624 0V-1.13389H317.49V0ZM317.49 50.002L318.292 50.8037L318.624 50.4716V50.002H317.49ZM288.12 79.3726V80.5064H288.589L288.921 80.1743L288.12 79.3726ZM316.815 79.3726L316.013 78.5708L314.077 80.5064H316.815V79.3726ZM317.49 79.3726V80.5064H318.624V79.3726H317.49ZM317.49 78.697H318.624V75.9595L316.688 77.8952L317.49 78.697ZM-1.13389 31.0711L-1.13389 79.3726H1.13389L1.13389 31.0711H-1.13389ZM30.2694 -0.801784L-0.801784 30.2694L0.801784 31.8729L31.8729 0.801784L30.2694 -0.801784ZM317.49 -1.13389L31.0711 -1.13389V1.13389L317.49 1.13389V-1.13389ZM318.624 50.002V0L316.356 0V50.002H318.624ZM288.921 80.1743L318.292 50.8037L316.688 49.2002L287.318 78.5708L288.921 80.1743ZM0 80.5064L288.12 80.5064V78.2387L0 78.2387L0 80.5064ZM316.815 80.5064H317.49V78.2387H316.815V80.5064ZM318.624 79.3726V78.697H316.356V79.3726H318.624ZM316.688 77.8952L316.013 78.5708L317.616 80.1743L318.292 79.4988L316.688 77.8952Z" fill="#FFEF5A" fill-opacity="0.3" mask="url(#path-1-inside-1_2095_2434)"/>
</g>
<g filter="url(#filter1_b_2095_2434)">
<mask id="path-3-inside-2_2095_2434" fill="white">
<path fill-rule="evenodd" clip-rule="evenodd" d="M9.07129 70.3014L9.07129 35.2112L35.2113 9.07117L308.419 9.07117V41.1813L279.299 70.3014L9.07129 70.3014Z"/>
</mask>
<path fill-rule="evenodd" clip-rule="evenodd" d="M9.07129 70.3014L9.07129 35.2112L35.2113 9.07117L308.419 9.07117V41.1813L279.299 70.3014L9.07129 70.3014Z" fill="black" fill-opacity="0.2"/>
<path d="M9.07129 35.2112L8.26951 34.4094L7.9374 34.7415V35.2112H9.07129ZM9.07129 70.3014H7.9374V71.4353H9.07129V70.3014ZM35.2113 9.07117V7.93727H34.7417L34.4096 8.26938L35.2113 9.07117ZM308.419 9.07117H309.553V7.93727H308.419V9.07117ZM308.419 41.1813L309.221 41.9831L309.553 41.651V41.1813H308.419ZM279.299 70.3014V71.4353H279.769L280.101 71.1032L279.299 70.3014ZM7.9374 35.2112L7.9374 70.3014H10.2052L10.2052 35.2112H7.9374ZM34.4096 8.26938L8.26951 34.4094L9.87307 36.013L36.0131 9.87295L34.4096 8.26938ZM308.419 7.93727L35.2113 7.93727V10.2051L308.419 10.2051V7.93727ZM309.553 41.1813V9.07117H307.285V41.1813H309.553ZM280.101 71.1032L309.221 41.9831L307.617 40.3795L278.497 69.4996L280.101 71.1032ZM9.07129 71.4353L279.299 71.4353V69.1675L9.07129 69.1675V71.4353Z" fill="url(#paint1_radial_2095_2434)" mask="url(#path-3-inside-2_2095_2434)"/>
<path d="M9.07129 35.2112L8.26951 34.4094L7.9374 34.7415V35.2112H9.07129ZM9.07129 70.3014H7.9374V71.4353H9.07129V70.3014ZM35.2113 9.07117V7.93727H34.7417L34.4096 8.26938L35.2113 9.07117ZM308.419 9.07117H309.553V7.93727H308.419V9.07117ZM308.419 41.1813L309.221 41.9831L309.553 41.651V41.1813H308.419ZM279.299 70.3014V71.4353H279.769L280.101 71.1032L279.299 70.3014ZM7.9374 35.2112L7.9374 70.3014H10.2052L10.2052 35.2112H7.9374ZM34.4096 8.26938L8.26951 34.4094L9.87307 36.013L36.0131 9.87295L34.4096 8.26938ZM308.419 7.93727L35.2113 7.93727V10.2051L308.419 10.2051V7.93727ZM309.553 41.1813V9.07117H307.285V41.1813H309.553ZM280.101 71.1032L309.221 41.9831L307.617 40.3795L278.497 69.4996L280.101 71.1032ZM9.07129 71.4353L279.299 71.4353V69.1675L9.07129 69.1675V71.4353Z" fill="#FFDB5A" fill-opacity="0.3" mask="url(#path-3-inside-2_2095_2434)"/>
</g>
<defs>
<filter id="filter0_b_2095_2434" x="-9.07115" y="-9.07115" width="335.633" height="97.5149" filterUnits="userSpaceOnUse" color-interpolation-filters="sRGB">
<feFlood flood-opacity="0" result="BackgroundImageFix"/>
<feGaussianBlur in="BackgroundImageFix" stdDeviation="4.53557"/>
<feComposite in2="SourceAlpha" operator="in" result="effect1_backgroundBlur_2095_2434"/>
<feBlend mode="normal" in="SourceGraphic" in2="effect1_backgroundBlur_2095_2434" result="shape"/>
</filter>
<filter id="filter1_b_2095_2434" x="0.00014019" y="1.81198e-05" width="317.49" height="79.3725" filterUnits="userSpaceOnUse" color-interpolation-filters="sRGB">
<feFlood flood-opacity="0" result="BackgroundImageFix"/>
<feGaussianBlur in="BackgroundImageFix" stdDeviation="4.53557"/>
<feComposite in2="SourceAlpha" operator="in" result="effect1_backgroundBlur_2095_2434"/>
<feBlend mode="normal" in="SourceGraphic" in2="effect1_backgroundBlur_2095_2434" result="shape"/>
</filter>
<radialGradient id="paint0_radial_2095_2434" cx="0" cy="0" r="1" gradientUnits="userSpaceOnUse" gradientTransform="translate(158.745 -11.3898) rotate(90) scale(29.5423 118.169)">
<stop stop-color="#FF8A00"/>
<stop offset="1" stop-color="white" stop-opacity="0"/>
</radialGradient>
<radialGradient id="paint1_radial_2095_2434" cx="0" cy="0" r="1" gradientUnits="userSpaceOnUse" gradientTransform="translate(151.942 -3.61014) rotate(90) scale(27.0101 108.04)">
<stop stop-color="#FF8A00"/>
<stop offset="1" stop-color="white" stop-opacity="0"/>
</radialGradient>
</defs>
</svg>
