<svg width="44" height="41" viewBox="0 0 44 41" fill="none" xmlns="http://www.w3.org/2000/svg">
<path d="M29.2701 13.33C27.9401 12.71 26.5001 12.26 25.0001 12C24.9737 12.0004 24.9486 12.0112 24.9301 12.03C24.7501 12.36 24.5401 12.79 24.4001 13.12C22.8091 12.8802 21.1911 12.8802 19.6001 13.12C19.4601 12.78 19.2501 12.36 19.0601 12.03C19.0501 12.01 19.0201 12 18.9901 12C17.4901 12.26 16.0601 12.71 14.7201 13.33C14.7101 13.33 14.7001 13.34 14.6901 13.35C11.9701 17.42 11.2201 21.38 11.5901 25.3C11.5901 25.32 11.6001 25.34 11.6201 25.35C13.4201 26.67 15.1501 27.47 16.8601 28C16.8901 28.01 16.9201 28 16.9301 27.98C17.3301 27.43 17.6901 26.85 18.0001 26.24C18.0201 26.2 18.0001 26.16 17.9601 26.15C17.3901 25.93 16.8501 25.67 16.3201 25.37C16.2801 25.35 16.2801 25.29 16.3101 25.26C16.4201 25.18 16.5301 25.09 16.6401 25.01C16.6601 24.99 16.6901 24.99 16.7101 25C20.1501 26.57 23.8601 26.57 27.2601 25C27.2801 24.99 27.3101 24.99 27.3301 25.01C27.4401 25.1 27.5501 25.18 27.6601 25.27C27.7001 25.3 27.7001 25.36 27.6501 25.38C27.1301 25.69 26.5801 25.94 26.0101 26.16C25.9701 26.17 25.9601 26.22 25.9701 26.25C26.2901 26.86 26.6501 27.44 27.0401 27.99C27.0701 28 27.1001 28.01 27.1301 28C28.8501 27.47 30.5801 26.67 32.3801 25.35C32.4001 25.34 32.4101 25.32 32.4101 25.3C32.8501 20.77 31.6801 16.84 29.3101 13.35C29.3001 13.34 29.2901 13.33 29.2701 13.33ZM18.5201 22.91C17.4901 22.91 16.6301 21.96 16.6301 20.79C16.6301 19.62 17.4701 18.67 18.5201 18.67C19.5801 18.67 20.4201 19.63 20.4101 20.79C20.4101 21.96 19.5701 22.91 18.5201 22.91ZM25.4901 22.91C24.4601 22.91 23.6001 21.96 23.6001 20.79C23.6001 19.62 24.4401 18.67 25.4901 18.67C26.5501 18.67 27.3901 19.63 27.3801 20.79C27.3801 21.96 26.5501 22.91 25.4901 22.91Z" fill="#FFD363"/>
<path d="M43.2234 25.5014V1H5.48852L1 9.40938V39.7766H38.5261L43.2234 34.0146V25.5014Z" stroke="#FFD363" stroke-width="1.43617"/>
<path d="M40.064 15.9363V4.15968H27.1384" stroke="#FFD363" stroke-width="0.861702" stroke-miterlimit="10"/>
<path d="M3.87207 25.4148V37.1914H16.7976" stroke="#FFD363" stroke-width="0.861702" stroke-miterlimit="10"/>
</svg>
