<svg width="44" height="41" viewBox="0 0 44 41" fill="none" xmlns="http://www.w3.org/2000/svg">
<path d="M43.2234 25.5014V1H5.48852L1 9.40938V39.7766H38.5261L43.2234 34.0146V25.5014Z" stroke="#FFD363" stroke-width="1.43617"/>
<path d="M40.064 15.9363V4.15968H27.1384" stroke="#FFD363" stroke-width="0.861702" stroke-miterlimit="10"/>
<path d="M3.87207 25.4148V37.1914H16.7976" stroke="#FFD363" stroke-width="0.861702" stroke-miterlimit="10"/>
<g clip-path="url(#clip0_2140_2207)">
<path d="M22.4373 10.0167C23.5289 10 24.6123 10.0083 25.6956 10C25.7623 11.275 26.2206 12.575 27.1539 13.475C28.0873 14.4 29.4039 14.825 30.6873 14.9667V18.325C29.4873 18.2833 28.2789 18.0333 27.1873 17.5167C26.7123 17.3 26.2706 17.025 25.8373 16.7417C25.8289 19.175 25.8456 21.6083 25.8206 24.0333C25.7539 25.2 25.3706 26.3583 24.6956 27.3167C23.6039 28.9167 21.7123 29.9583 19.7706 29.9917C18.5789 30.0583 17.3873 29.7333 16.3706 29.1333C14.6873 28.1417 13.5039 26.325 13.3289 24.375C13.3123 23.9583 13.3039 23.5417 13.3206 23.1333C13.4706 21.55 14.2539 20.0333 15.4706 19C16.8539 17.8 18.7873 17.225 20.5956 17.5667C20.6123 18.8 20.5623 20.0333 20.5623 21.2667C19.7373 21 18.7706 21.075 18.0456 21.575C17.5206 21.9167 17.1206 22.4417 16.9123 23.0333C16.7373 23.4583 16.7873 23.925 16.7956 24.375C16.9956 25.7417 18.3123 26.8917 19.7123 26.7667C20.6456 26.7583 21.5373 26.2167 22.0206 25.425C22.1789 25.15 22.3539 24.8667 22.3623 24.5417C22.4456 23.05 22.4123 21.5667 22.4206 20.075C22.4289 16.7167 22.4123 13.3667 22.4373 10.0167Z" fill="#FFD363"/>
</g>
<defs>
<clipPath id="clip0_2140_2207">
<rect width="20" height="20" fill="white" transform="translate(12 10)"/>
</clipPath>
</defs>
</svg>
