<svg width="44" height="41" viewBox="0 0 44 41" fill="none" xmlns="http://www.w3.org/2000/svg">
<path d="M43.2234 25.5014V1H5.48852L1 9.40938V39.7766H38.5261L43.2234 34.0146V25.5014Z" stroke="#FFD363" stroke-width="1.43617"/>
<path d="M40.064 15.9363V4.15968H27.1384" stroke="#FFD363" stroke-width="0.861702" stroke-miterlimit="10"/>
<path d="M3.87207 25.4148V37.1914H16.7976" stroke="#FFD363" stroke-width="0.861702" stroke-miterlimit="10"/>
<g clip-path="url(#clip0_2140_2209)">
<mask id="mask0_2140_2209" style="mask-type:luminance" maskUnits="userSpaceOnUse" x="13" y="11" width="18" height="18">
<path d="M13 11H31V29H13V11Z" fill="white"/>
</mask>
<g mask="url(#mask0_2140_2209)">
<path d="M27.175 11.8435H29.9354L23.9054 18.7529L31 28.1566H25.4457L21.0923 22.4545L16.1166 28.1566H13.3536L19.8027 20.7638L13 11.8448H18.6957L22.6249 17.0558L27.175 11.8435ZM26.2043 26.5006H27.7343L17.86 13.4134H16.2194L26.2043 26.5006Z" fill="#FFD363"/>
</g>
</g>
<defs>
<clipPath id="clip0_2140_2209">
<rect width="18" height="18" fill="white" transform="translate(13 11)"/>
</clipPath>
</defs>
</svg>
