<svg width="44" height="41" viewBox="0 0 44 41" fill="none" xmlns="http://www.w3.org/2000/svg">
<path fill-rule="evenodd" clip-rule="evenodd" d="M21.4998 11.8333C22.3192 11.8333 23.1597 11.8543 23.9743 11.8888L24.9364 11.9348L25.8574 11.9895L26.7199 12.0479L27.5076 12.1093C28.3626 12.1743 29.1673 12.539 29.7798 13.1391C30.3923 13.7392 30.7734 14.5361 30.856 15.3896L30.8944 15.7969L30.9663 16.669C31.0333 17.5727 31.0832 18.5579 31.0832 19.4999C31.0832 20.442 31.0333 21.4271 30.9663 22.3308L30.8944 23.2029L30.856 23.6102C30.7734 24.4639 30.3922 25.261 29.7794 25.861C29.1667 26.4611 28.3619 26.8257 27.5067 26.8906L26.7208 26.951L25.8583 27.0104L24.9364 27.065L23.9743 27.111C23.1499 27.1467 22.3249 27.1652 21.4998 27.1666C20.6747 27.1652 19.8498 27.1467 19.0254 27.111L18.0633 27.065L17.1423 27.0104L16.2798 26.951L15.492 26.8906C14.637 26.8255 13.8324 26.4608 13.2199 25.8608C12.6074 25.2607 12.2262 24.4637 12.1436 23.6102L12.1053 23.2029L12.0334 22.3308C11.9604 21.3889 11.9214 20.4447 11.9165 19.4999C11.9165 18.5579 11.9663 17.5727 12.0334 16.669L12.1053 15.7969L12.1436 15.3896C12.2262 14.5363 12.6072 13.7394 13.2195 13.1394C13.8318 12.5393 14.6362 12.1745 15.4911 12.1093L16.2779 12.0479L17.1404 11.9895L18.0623 11.9348L19.0245 11.8888C19.8491 11.8531 20.6744 11.8346 21.4998 11.8333ZM19.5832 17.176V21.8239C19.5832 22.2666 20.0623 22.5426 20.4457 22.3222L24.4707 19.9983C24.5583 19.9478 24.631 19.8752 24.6816 19.7877C24.7322 19.7003 24.7588 19.601 24.7588 19.4999C24.7588 19.3989 24.7322 19.2996 24.6816 19.2121C24.631 19.1246 24.5583 19.052 24.4707 19.0016L20.4457 16.6786C20.3582 16.6281 20.259 16.6015 20.1581 16.6016C20.0571 16.6016 19.9579 16.6282 19.8705 16.6787C19.7831 16.7292 19.7105 16.8018 19.6601 16.8893C19.6096 16.9768 19.5831 17.076 19.5832 17.1769V17.176Z" fill="#FFD363"/>
<path d="M43.2234 25.5014V1H5.48852L1 9.40938V39.7766H38.5261L43.2234 34.0146V25.5014Z" stroke="#FFD363" stroke-width="1.43617"/>
<path d="M40.064 15.9363V4.15968H27.1384" stroke="#FFD363" stroke-width="0.861702" stroke-miterlimit="10"/>
<path d="M3.87207 25.4148V37.1914H16.7976" stroke="#FFD363" stroke-width="0.861702" stroke-miterlimit="10"/>
</svg>
